<?xml version="1.0" encoding="UTF-8"?>
<!--Generator: Apple Native CoreSVG 175.5-->
<!DOCTYPE svg
PUBLIC "-//W3C//DTD SVG 1.1//EN"
       "http://www.w3.org/Graphics/SVG/1.1/DTD/svg11.dtd">
<svg version="1.1" xmlns="http://www.w3.org/2000/svg" xmlns:xlink="http://www.w3.org/1999/xlink" width="893.963" height="1235.84">
 <g>
  <rect height="1235.84" opacity="0" width="893.963" x="0" y="0"/>
  <path d="M90.2523 408.691L120.037 342.773C95.1351 335.449 77.0687 311.523 77.0687 282.715C77.0687 236.816 126.873 206.055 179.608 222.656C172.772 172.852 223.553 135.742 273.358 160.156C258.221 103.027 294.354 70.8008 334.881 70.8008C374.432 70.8008 414.471 101.074 406.659 159.18C438.397 138.184 491.619 142.578 518.475 163.086C531.17 133.789 557.537 116.699 588.299 116.699C632.244 116.699 655.194 151.855 653.729 200.684C714.276 190.918 757.733 218.262 757.733 274.902C757.733 305.664 734.295 333.496 704.51 342.285L744.061 403.809C793.377 379.883 827.557 328.613 827.557 270.02C827.557 186.035 773.846 126.953 696.209 125C675.701 77.6367 638.104 45.8984 584.881 45.8984C551.678 45.8984 520.916 57.6172 497.479 79.1016C485.272 75.6836 468.67 74.707 454.51 77.6367C433.514 30.2734 387.127 0 334.881 0C265.545 0 220.135 42.4805 211.346 84.9609C174.237 81.543 142.987 115.723 142.987 148.926C68.2796 146.484 7.24447 208.008 7.24447 282.715C7.24447 339.355 41.4242 388.672 90.2523 408.691ZM225.018 1156.74L530.194 1156.74L527.264 1083.98L373.455 1083.98L317.791 473.145C311.932 409.668 351.483 368.164 417.401 368.164C483.319 368.164 522.869 409.668 517.01 473.145L470.135 990.234L545.33 957.031L588.787 476.074C593.67 421.875 629.315 393.066 672.772 393.066C725.994 393.066 772.869 432.129 760.174 497.559L694.744 836.914L767.498 840.332L831.463 501.465C852.459 392.578 771.405 320.312 672.772 320.312C628.826 320.312 590.252 337.891 562.909 369.629C535.565 324.707 482.83 295.41 417.401 295.41C351.971 295.41 299.237 324.707 271.893 369.629C244.549 337.891 205.975 320.312 162.03 320.312C63.3968 320.312-17.6579 392.578 3.33822 501.465L106.366 1046.88C119.549 1117.19 155.194 1156.74 225.018 1156.74ZM227.459 1083.98C200.604 1083.98 184.979 1070.31 180.096 1043.46L74.6273 497.559C61.932 432.129 108.807 393.066 162.03 393.066C205.487 393.066 241.131 421.875 245.526 476.074L300.701 1083.98ZM684.002 1234.86C731.366 1234.86 775.311 1208.01 795.819 1166.99C853.924 1153.32 893.963 1102.05 893.963 1042.48C893.963 988.77 860.76 943.359 815.838 920.41C812.909 850.098 755.291 803.223 684.002 803.223C613.69 803.223 557.049 848.145 552.655 915.527C494.061 928.711 450.604 980.957 450.604 1041.99C450.604 1110.84 503.338 1165.53 570.233 1171.39C592.694 1208.98 636.151 1234.86 684.002 1234.86ZM684.002 1171.88C646.405 1171.88 611.737 1148.44 613.69 1104.49C563.885 1120.12 513.104 1094.24 513.104 1041.99C513.104 988.77 555.096 958.984 616.619 969.238C600.506 923.828 624.432 866.211 684.002 866.211C741.619 866.211 768.963 921.387 753.338 972.656C798.748 967.773 829.51 997.07 829.51 1044.92C829.51 1086.91 799.725 1111.82 750.897 1107.42C752.362 1145.02 718.67 1171.88 684.002 1171.88Z" fill="#ff453a"/>
 </g>
</svg>
